<svg xmlns="http://www.w3.org/2000/svg" viewBox="0 0 800 500" role="img" aria-labelledby="title desc">
  <title id="title">Community workshop illustration</title>
  <desc id="desc">Stylized illustration of a community workshop with people gathered around a table.</desc>
  <defs>
    <linearGradient id="bgGradient" x1="0" y1="0" x2="1" y2="1">
      <stop offset="0%" stop-color="#ede7ff" />
      <stop offset="100%" stop-color="#c5d3ff" />
    </linearGradient>
    <linearGradient id="tableGradient" x1="0" y1="0" x2="0" y2="1">
      <stop offset="0%" stop-color="#ffcf99" />
      <stop offset="100%" stop-color="#f59842" />
    </linearGradient>
  </defs>
  <rect width="800" height="500" fill="url(#bgGradient)" rx="48" />
  <g fill="#fefefe" opacity="0.55">
    <circle cx="80" cy="90" r="22" />
    <circle cx="180" cy="52" r="30" />
    <circle cx="270" cy="120" r="18" />
    <circle cx="510" cy="72" r="26" />
    <circle cx="670" cy="130" r="20" />
  </g>
  <g transform="translate(0,110)">
    <ellipse cx="400" cy="260" rx="260" ry="120" fill="url(#tableGradient)" />
    <rect x="210" y="340" width="380" height="48" rx="24" fill="#c57222" />
  </g>
  <g fill="#1d2344" opacity="0.12">
    <path d="M120 400c30-100 90-160 180-160s150 60 180 160z" />
    <path d="M380 360c20-80 70-120 140-120s110 40 140 120z" />
  </g>
  <g transform="translate(120,190)">
    <circle cx="40" cy="40" r="40" fill="#2d3a67" />
    <rect x="12" y="80" width="56" height="90" rx="24" fill="#5561a3" />
    <ellipse cx="40" cy="74" rx="38" ry="18" fill="#f4ede4" opacity="0.8" />
  </g>
  <g transform="translate(300,200)">
    <circle cx="38" cy="38" r="38" fill="#7b2f6b" />
    <rect x="10" y="76" width="56" height="96" rx="24" fill="#a84c93" />
    <ellipse cx="38" cy="70" rx="36" ry="18" fill="#f7f2ec" opacity="0.75" />
  </g>
  <g transform="translate(460,185)">
    <circle cx="42" cy="42" r="42" fill="#235f7f" />
    <rect x="14" y="88" width="60" height="110" rx="24" fill="#3a83aa" />
    <ellipse cx="42" cy="82" rx="40" ry="18" fill="#f9f7f0" opacity="0.75" />
  </g>
  <g transform="translate(600,210)">
    <circle cx="32" cy="32" r="32" fill="#b15f2d" />
    <rect x="10" y="64" width="44" height="80" rx="20" fill="#d67a40" />
    <ellipse cx="32" cy="60" rx="30" ry="14" fill="#f7f1e9" opacity="0.7" />
  </g>
  <g transform="translate(170,240)">
    <path d="M0 0h460c20 0 30 30 14 44l-32 28c-7 6-16 9-26 9H44c-10 0-19-3-26-9L-14 44C-30 30-20 0 0 0z" fill="#fdeed9" opacity="0.8" />
  </g>
  <g transform="translate(190,260)" fill="#1b1e3c" opacity="0.5">
    <rect x="0" y="0" width="420" height="14" rx="7" />
    <rect x="0" y="28" width="320" height="14" rx="7" />
    <rect x="0" y="56" width="220" height="14" rx="7" />
  </g>
</svg>
