<svg xmlns="http://www.w3.org/2000/svg" viewBox="0 0 800 500" role="img" aria-labelledby="title desc">
  <title id="title">Ninth Root stewardship flyer illustration</title>
  <desc id="desc">Poster-style illustration featuring land back themes, layered maps, and community assembly graphics.</desc>
  <defs>
    <linearGradient id="sunsetGradient" x1="0" y1="0" x2="0" y2="1">
      <stop offset="0%" stop-color="#ffe29f" />
      <stop offset="100%" stop-color="#ffa99f" />
    </linearGradient>
    <linearGradient id="landGradient" x1="0" y1="0" x2="1" y2="1">
      <stop offset="0%" stop-color="#487d4c" />
      <stop offset="100%" stop-color="#7fb174" />
    </linearGradient>
    <pattern id="gridPattern" width="20" height="20" patternUnits="userSpaceOnUse">
      <path d="M20 0H0v20" fill="none" stroke="#fdfdfd" stroke-width="1.2" opacity="0.3" />
    </pattern>
  </defs>
  <rect width="800" height="500" fill="#f7f4ef" rx="36" />
  <rect x="80" y="40" width="640" height="420" rx="28" fill="#fff" stroke="#d6cec5" stroke-width="4" />
  <rect x="120" y="80" width="260" height="340" rx="24" fill="url(#sunsetGradient)" />
  <rect x="140" y="110" width="220" height="290" rx="18" fill="#ffffff" opacity="0.2" />
  <g transform="translate(140,140)" fill="#2e3c2f" font-family="'Space Grotesk', 'Arial', sans-serif">
    <text font-size="40" font-weight="700">LAND BACK</text>
    <text y="46" font-size="18" letter-spacing="6">WITH CONDITIONS</text>
    <text y="98" font-size="20">COMMUNITY LISTENING</text>
    <text y="130" font-size="18">NINTH ROOT FELLOWSHIP</text>
  </g>
  <g transform="translate(420,80)">
    <rect x="0" y="0" width="260" height="160" rx="24" fill="#153545" />
    <rect x="12" y="12" width="236" height="136" rx="18" fill="#1f4b5c" />
    <path d="M40 110c32-54 92-70 150-70l20-30" stroke="#9cd8cc" stroke-width="6" stroke-linecap="round" stroke-linejoin="round" fill="none" />
    <circle cx="70" cy="118" r="8" fill="#9cd8cc" />
    <circle cx="206" cy="58" r="8" fill="#9cd8cc" />
    <circle cx="180" cy="94" r="8" fill="#9cd8cc" />
  </g>
  <g transform="translate(400,260)">
    <rect x="0" y="0" width="300" height="200" rx="28" fill="#fff6e9" stroke="#f1d1a7" stroke-width="4" />
    <rect x="20" y="24" width="260" height="152" rx="22" fill="#ffe9c8" />
    <rect x="36" y="38" width="228" height="124" rx="20" fill="url(#gridPattern)" />
    <path d="M50 150c28-34 78-60 120-60s92 26 120 60" fill="none" stroke="#487d4c" stroke-width="6" stroke-linecap="round" />
    <path d="M70 130c20-24 56-42 100-42s80 18 100 42" fill="none" stroke="#7fb174" stroke-width="6" stroke-linecap="round" opacity="0.7" />
    <circle cx="150" cy="90" r="42" fill="url(#landGradient)" />
    <circle cx="150" cy="90" r="14" fill="#f4f8f2" />
    <path d="M150 60v30l20 14" stroke="#f4f8f2" stroke-width="6" stroke-linecap="round" stroke-linejoin="round" fill="none" />
  </g>
  <g transform="translate(120,360)" fill="#2e3c2f" font-family="'Space Grotesk', 'Arial', sans-serif" opacity="0.8">
    <text font-size="18" font-weight="600">ARCUS SOCIAL JUSTICE FELLOWSHIP</text>
    <text y="26" font-size="16">Community-led design research and stewardship planning</text>
  </g>
  <g transform="translate(120,420)" fill="#2e3c2f" font-family="'Space Grotesk', 'Arial', sans-serif" opacity="0.6">
    <text font-size="14">Listening Sessions · Civic Design Strategy · Workshop Design · Visual Mapping</text>
  </g>
</svg>
